<?xml version="1.0" encoding="UTF-8" standalone="no"?>
<!DOCTYPE svg PUBLIC "-//W3C//DTD SVG 1.1//EN" "http://www.w3.org/Graphics/SVG/1.1/DTD/svg11.dtd">
<svg width="100%" height="100%" viewBox="0 0 1000 1000" version="1.1" xmlns="http://www.w3.org/2000/svg" xmlns:xlink="http://www.w3.org/1999/xlink" xml:space="preserve" xmlns:serif="http://www.serif.com/" style="fill-rule:evenodd;clip-rule:evenodd;stroke-linejoin:round;stroke-miterlimit:2;">
    <g transform="matrix(1.441875,0,0,1.441875,500,500)">
        <g transform="matrix(1,0,0,1,-533.333333,-533.333333)">
            <g transform="matrix(4.166667,0,0,4.166667,0,0)">
                <path d="M210.8,199.4C210.8,202.5 208.3,205.1 205.1,205.1L137.1,205.1C134,205.1 131.4,202.6 131.4,199.4L131.4,183.9C131.7,164.9 133.7,146.7 137.9,138.4C140.4,133.4 144.6,130.7 149.4,129.3C158.5,126.6 174.3,128.4 181.1,128.1C181.1,128.1 201.5,128.9 201.5,117.4C201.5,105.9 192.4,108.8 192.4,108.8C182.4,109.1 174.7,108.4 169.8,106.4C161.5,103.1 161.2,97.2 161.2,95.2C160.8,72.1 126.7,69.3 96.7,75.1C63.9,81.3 97.1,128.4 97.1,191.2L97.1,199.6C97.1,202.7 94.5,205.2 91.4,205.2L57.7,205.2C54.6,205.2 52,202.7 52,199.5L52,55.5C52,52.4 54.5,49.8 57.7,49.8L89.4,49.8C92.5,49.8 95.1,52.3 95.1,55.5C95.1,60.2 100.3,62.7 104.1,60C115.5,51.8 130.1,47.5 146.5,47.5C183.1,47.5 210.9,68.9 210.9,116.2L210.9,199.4L210.8,199.4ZM150,99.3C150,92.6 144.6,87.2 137.9,87.2C131.2,87.2 125.8,92.6 125.8,99.3C125.8,106 131.2,111.4 137.9,111.4C144.6,111.4 150,106 150,99.3Z" style="fill:white;fill-rule:nonzero;"/>
            </g>
        </g>
    </g>
</svg>
